<svg id="LogoLayer" xmlns="http://www.w3.org/2000/svg" width="110px" height="48px" viewBox="0 0 700.08 207.89"><defs></defs><g><path style="fill:#efa320" d="M630.75,118.44l-30.22-49.14c-4.48-7.29-2.47-16.75,4.42-21.62,.18-.14,.37-.27,.57-.39l.3-.18L678.53,2.39l.3-.18c.2-.12,.41-.23,.61-.33l-29.88,114.26c-.31,1.19-.82,2.33-1.57,3.3-4.33,5.58-13.29,5.43-17.24-1Z"></path><path style="fill:#273053" d="M604.55,70.41c-3.15-.87-5.56-3.45-6.15-6.67-1.09-6.03,1.33-12.36,6.56-16.06,.22-.36,73.43-45.41,74.49-45.8,5.66-3,12.4-2.3,17.29,1.4,2.61,1.97,3.82,5.29,3.18,8.5l-14.14,70.34c-1.11,5.51-6.66,8.92-12.08,7.43l-69.15-19.12Z"></path></g><path style="fill:#273053" d="M0,205.91V30.84C0,24.7,2.18,19.41,6.48,15.11c4.3-4.3,9.59-6.48,15.73-6.48h107.23v28.27H28.28v55.28h101.16v12.89c0,.68-.12,4.11-3.38,7.55-4.94,5.21-14.27,7.85-27.74,7.85H28.28v85.43H0Z"></path><g><polygon style="fill:#273053" points="286.63 8.63 314.59 8.63 314.82 57.76 286.63 93.58 286.63 8.63"></polygon><path style="fill:#273053" d="M209.83,207.89c-12.17,0-23-2-32.18-5.95-9.2-3.95-16.97-9.42-23.12-16.27-6.14-6.83-10.85-15.04-14-24.42-3.14-9.32-4.73-19.51-4.73-30.29s1.65-20.56,4.89-29.61c3.27-9.1,8.19-17.08,14.62-23.72,6.44-6.64,14.6-11.95,24.27-15.8,9.64-3.84,20.99-5.78,33.73-5.78h66.8v56.4l31.37-40.17,.15-.13c5.9-5.11,12.72-9.49,20.28-13.03,7.65-3.58,16.06-5.4,25-5.4,11.98,0,22.75,2,32.03,5.94,9.3,3.96,17.13,9.44,23.27,16.27,6.13,6.83,10.85,15.05,14.01,24.42,3.14,9.34,4.73,19.53,4.73,30.3s-1.64,20.56-4.89,29.61c-3.27,9.1-8.19,17.08-14.62,23.72-6.43,6.63-14.6,11.95-24.27,15.8-9.64,3.84-20.99,5.78-33.72,5.78h-66.8v-55.52l-6.52,8.47v47.06h-28.26v-13.32l-3.11,2.2c-4.27,3.01-8.94,5.72-13.9,8.04-7.66,3.58-16.08,5.4-25,5.4Zm-.29-123.87c-6.47,0-12.56,1.08-18.11,3.2-5.5,2.11-10.33,5.22-14.36,9.25-4.04,4.03-7.25,9.02-9.54,14.82-2.31,5.81-3.48,12.43-3.48,19.68,0,8.01,1.22,15.16,3.62,21.27,2.39,6.08,5.7,11.26,9.83,15.39,4.14,4.14,8.97,7.3,14.37,9.4,5.43,2.12,11.37,3.19,17.66,3.19,4.94,0,9.67-.88,14.03-2.61,4.43-1.75,8.55-4.09,12.25-6.96,3.69-2.86,6.86-6.17,9.43-9.85,2.54-3.63,4.57-7.4,6.04-11.2l.05-.13,.03-.13c.32-1.36,.52-3.04,.61-5,.1-2.21,.14-4.46,.14-6.71v-53.59h-42.6Zm147.36-2.6c-4.93,0-9.65,.88-14.03,2.61-4.43,1.76-8.44,4.09-11.92,6.93-3.52,2.87-6.66,6.2-9.35,9.9-2.67,3.68-4.67,7.49-5.95,11.33-.52,1.4-.83,3.13-.91,5.24-.1,2.23-.14,4.44-.14,6.58v53.59h42.31c6.68,0,12.86-1.08,18.4-3.2,5.5-2.1,10.33-5.21,14.36-9.25,4.03-4.03,7.24-9.01,9.55-14.82,2.31-5.82,3.48-12.44,3.48-19.68,0-8-1.22-15.16-3.63-21.27-2.4-6.09-5.71-11.26-9.83-15.39s-9-7.28-14.5-9.39c-5.54-2.12-11.53-3.2-17.82-3.2Z"></path></g><path style="fill:#273053" d="M513.64,207.89c-12.17,0-23-2-32.18-5.95-9.2-3.95-16.98-9.43-23.12-16.27-6.14-6.83-10.85-15.04-14-24.42-3.14-9.32-4.73-19.51-4.73-30.29s1.65-20.56,4.89-29.61c3.27-9.1,8.19-17.08,14.62-23.72,6.44-6.64,14.6-11.95,24.27-15.8,9.64-3.84,20.99-5.78,33.73-5.78h66.8V205.57h-28.26v-13.32l-3.11,2.2c-4.27,3.02-8.95,5.72-13.9,8.04-7.66,3.58-16.08,5.4-25,5.4Zm-.29-123.87c-6.47,0-12.56,1.08-18.11,3.2-5.5,2.11-10.33,5.22-14.36,9.25-4.04,4.04-7.25,9.02-9.54,14.82-2.31,5.81-3.48,12.43-3.48,19.68,0,8.01,1.22,15.16,3.62,21.27,2.39,6.08,5.7,11.26,9.83,15.39,4.14,4.14,8.97,7.3,14.37,9.4,5.43,2.12,11.37,3.19,17.66,3.19,4.94,0,9.67-.88,14.03-2.61,4.44-1.76,8.56-4.1,12.25-6.96,3.68-2.85,6.85-6.16,9.43-9.84,2.54-3.63,4.57-7.4,6.05-11.2l.05-.13,.03-.13c.32-1.36,.52-3.05,.61-5,.1-2.21,.14-4.46,.14-6.71v-53.59h-42.6Z"></path></svg>